<svg xmlns="http://www.w3.org/2000/svg" width="515.545" height="392.873" viewBox="0 0 515.545 392.873">
  <g id="Group_2273" data-name="Group 2273" transform="translate(-1183 -393.468)">
    <g id="Group_1535" data-name="Group 1535" transform="translate(1219.619 709.133)" opacity="0.32">
      <g id="Group_1516" data-name="Group 1516" transform="translate(29.192 32.547)">
        <g id="Group_1512" data-name="Group 1512">
          <g id="Group_1509" data-name="Group 1509" transform="translate(0.44 0.448)">
            <g id="Group_1508" data-name="Group 1508">
              <path id="Path_4990" data-name="Path 4990" d="M2700.948,2946.748c-1.723-7.7-.383-11.134,1.407-12.8,2.193-2.045,4.873-1.259,6.443-3.671,1.936-2.974-1.15-5.688.5-9.034,1.759-3.571,6.274-2.508,9.064-6.171,1.443-1.894,2.243-4.814,1.368-9.452,5.488,8.108,5.377,12.41,4.139,14.855-1.275,2.519-3.453,2.492-4.961,5.8-1.833,4.025.292,6.464-1.221,10.19-.5,1.227-2.663,2.819-6.775,6.1-2.679,2.139-4.919,3.7-4.726,5.643.022.222-.374.38-.878.505a3.365,3.365,0,0,1-3.441-1.3A2.576,2.576,0,0,0,2700.948,2946.748Z" transform="translate(-2700.149 -2905.617)" fill="#fff"/>
            </g>
          </g>
          <g id="Group_1511" data-name="Group 1511">
            <g id="Group_1510" data-name="Group 1510">
              <path id="Path_4991" data-name="Path 4991" d="M2702.705,2947.359a3.912,3.912,0,0,1-3.053-1.568,2.227,2.227,0,0,0-.764-.538.449.449,0,0,1-.24-.3c-1.448-6.475-.93-10.926,1.539-13.229a7.961,7.961,0,0,1,3.332-1.706,4.819,4.819,0,0,0,3.041-1.882c.885-1.362.6-2.644.275-4.129a6.876,6.876,0,0,1,.2-4.858c.982-1.993,2.783-2.67,4.527-3.324a9.25,9.25,0,0,0,4.583-2.92c1.595-2.095,2.028-5.156,1.283-9.1a.448.448,0,0,1,.811-.334c4.524,6.683,5.927,11.834,4.169,15.308a7.519,7.519,0,0,1-2.286,2.57,8.024,8.024,0,0,0-2.667,3.217,9.527,9.527,0,0,0-.676,5.2,10.164,10.164,0,0,1-.538,4.978c-.476,1.173-2.115,2.473-5.38,5.065l-2.25,1.787c-2.23,1.763-3.992,3.156-3.841,4.679.066.662-.8.88-1.213.985A3.537,3.537,0,0,1,2702.705,2947.359Zm-3.227-2.809a2.741,2.741,0,0,1,.876.686,2.9,2.9,0,0,0,2.982,1.149,2.724,2.724,0,0,0,.529-.175c-.093-1.938,1.8-3.437,4.188-5.322l2.249-1.786c2.942-2.335,4.719-3.745,5.107-4.7a9.328,9.328,0,0,0,.474-4.576,10.391,10.391,0,0,1,.754-5.632,8.9,8.9,0,0,1,2.922-3.545,6.612,6.612,0,0,0,2.048-2.275c1.456-2.877.443-7.146-3.01-12.707.3,3.246-.278,5.856-1.742,7.776a10.1,10.1,0,0,1-4.98,3.217c-1.725.648-3.214,1.207-4.038,2.881a6,6,0,0,0-.126,4.271c.341,1.542.692,3.135-.4,4.81a5.668,5.668,0,0,1-3.526,2.25,7.133,7.133,0,0,0-2.987,1.5C2698.6,2934.424,2698.158,2938.52,2699.478,2944.55Z" transform="translate(-2697.847 -2903.273)" fill="#0dacfd"/>
            </g>
          </g>
        </g>
        <g id="Group_1515" data-name="Group 1515" transform="translate(3.959 13.355)">
          <g id="Group_1514" data-name="Group 1514">
            <g id="Group_1513" data-name="Group 1513">
              <path id="Path_4992" data-name="Path 4992" d="M2719.147,2999.468a.448.448,0,0,1-.441-.375,8.592,8.592,0,0,1,.41-4.635c.993-2.506,2.947-3.562,4.834-4.583,1.679-.908,3.264-1.765,4.029-3.611a6.226,6.226,0,0,0-.012-4.227,6.184,6.184,0,0,1,.167-4.729c1.063-2.062,3.4-3.454,6.942-4.137a.448.448,0,1,1,.169.88c-3.26.628-5.385,1.863-6.316,3.667-.747,1.45-.444,2.68-.094,4.1a7.123,7.123,0,0,1-.03,4.784c-.887,2.139-2.688,3.113-4.43,4.055-1.828.988-3.555,1.922-4.429,4.127a7.7,7.7,0,0,0-.358,4.156.448.448,0,0,1-.369.516A.429.429,0,0,1,2719.147,2999.468Z" transform="translate(-2718.564 -2973.165)" fill="#0dacfd"/>
            </g>
          </g>
        </g>
      </g>
      <g id="Group_1525" data-name="Group 1525" transform="translate(0 32.65)">
        <g id="Group_1521" data-name="Group 1521">
          <g id="Group_1518" data-name="Group 1518" transform="translate(0.455 0.448)">
            <g id="Group_1517" data-name="Group 1517">
              <path id="Path_4993" data-name="Path 4993" d="M2573.186,2947.392c2.909-8.265,1.637-11.737-.369-13.3-2.457-1.918-5.806-.81-7.466-3.179-2.047-2.921,2-6.1.342-9.438-1.769-3.567-7.383-1.975-10.4-5.53-1.559-1.839-2.227-4.822-.674-9.785-7.54,9.094-7.857,13.6-6.606,16.041,1.289,2.512,3.946,2.256,5.436,5.575,1.812,4.035-1.035,6.821.417,10.577.479,1.237,2.949,2.681,7.616,5.7,3.04,1.965,5.606,3.37,5.166,5.432-.05.235.687.009,1.288.089a4.454,4.454,0,0,0,4.06-1.383A4.039,4.039,0,0,1,2573.186,2947.392Z" transform="translate(-2547.457 -2906.158)" fill="#fff"/>
            </g>
          </g>
          <g id="Group_1520" data-name="Group 1520">
            <g id="Group_1519" data-name="Group 1519">
              <path id="Path_4994" data-name="Path 4994" d="M2566.776,2948.172a6.43,6.43,0,0,1-.823-.056,3.418,3.418,0,0,0-.675.007c-.377.027-.677.05-.879-.182a.6.6,0,0,1-.114-.452c.336-1.571-1.646-2.836-4.154-4.439l-2.552-1.64c-3.719-2.387-5.587-3.585-6.056-4.795a8.976,8.976,0,0,1-.136-5.207,8.227,8.227,0,0,0-.271-5.348,6.689,6.689,0,0,0-2.885-3.066,6.443,6.443,0,0,1-2.541-2.488c-1.813-3.533.366-8.941,6.661-16.532a.448.448,0,0,1,.772.42c-1.316,4.2-1.119,7.351.586,9.362,1.375,1.619,3.355,2.106,5.271,2.575,2.153.528,4.187,1.028,5.188,3.046.895,1.8.28,3.568-.262,5.124-.552,1.584-1.029,2.952-.115,4.256.8,1.137,2.05,1.371,3.5,1.642a8.5,8.5,0,0,1,3.875,1.441c2.8,2.183,2.969,6.828.515,13.8a.45.45,0,0,1-.225.254,3.69,3.69,0,0,0-1.057.7A4.792,4.792,0,0,1,2566.776,2948.172Zm-1.069-.967a2.76,2.76,0,0,1,.363.022,3.987,3.987,0,0,0,3.675-1.246,4.122,4.122,0,0,1,1.151-.805c2.251-6.478,2.158-10.726-.281-12.63a7.692,7.692,0,0,0-3.489-1.268c-1.506-.281-3.062-.572-4.069-2.008-1.176-1.68-.577-3.4,0-5.065.531-1.524,1.032-2.964.3-4.431-.815-1.645-2.568-2.075-4.6-2.573-1.959-.481-4.179-1.027-5.74-2.867-1.616-1.9-2.052-4.642-1.3-8.156-4.958,6.347-6.72,11.025-5.236,13.917a5.571,5.571,0,0,0,2.232,2.146,7.528,7.528,0,0,1,3.214,3.449,9.07,9.07,0,0,1,.335,5.878,8.144,8.144,0,0,0,.092,4.721c.362.937,2.373,2.227,5.7,4.364l2.55,1.64c2.6,1.664,4.7,3,4.607,4.933C2565.367,2947.218,2565.534,2947.206,2565.708,2947.206Zm5.551-1.71h0Z" transform="translate(-2545.074 -2903.813)" fill="#0dacfd"/>
            </g>
          </g>
        </g>
        <g id="Group_1524" data-name="Group 1524" transform="translate(5.115 14.087)">
          <g id="Group_1523" data-name="Group 1523">
            <g id="Group_1522" data-name="Group 1522">
              <path id="Path_4995" data-name="Path 4995" d="M2589.137,3003.436a.418.418,0,0,1-.124-.018.448.448,0,0,1-.307-.554,6.755,6.755,0,0,0,.005-4.3c-.821-2.191-2.818-2.987-4.934-3.83-2.032-.81-4.135-1.648-5-3.832-.741-1.865-.1-3.56.461-5.055.575-1.527,1.071-2.844.328-4.26-.935-1.781-3.394-2.845-7.309-3.164a.448.448,0,0,1-.409-.483.441.441,0,0,1,.483-.409c4.241.344,6.942,1.569,8.028,3.64.931,1.772.314,3.409-.282,4.992-.556,1.474-1.079,2.866-.466,4.409.726,1.825,2.56,2.557,4.5,3.33,2.2.879,4.481,1.787,5.441,4.348a7.628,7.628,0,0,1,.017,4.859A.449.449,0,0,1,2589.137,3003.436Z" transform="translate(-2571.844 -2977.533)" fill="#0dacfd"/>
            </g>
          </g>
        </g>
      </g>
      <g id="Group_1534" data-name="Group 1534" transform="translate(16.468 0)">
        <g id="Group_1530" data-name="Group 1530">
          <g id="Group_1527" data-name="Group 1527" transform="translate(0.438 0.448)">
            <g id="Group_1526" data-name="Group 1526">
              <path id="Path_4996" data-name="Path 4996" d="M2641.428,2811.457c-8.233-10.431-8.707-16.631-7.208-20.471,1.837-4.706,6.481-5.468,7.1-10.277.77-5.93-5.9-7.8-5.836-14.084.065-6.708,7.7-8.388,9.262-15.987.808-3.93-.108-8.949-4.822-15.352,14.253,8.308,17.224,14.921,17.129,19.539-.1,4.756-3.425,6.306-3.3,12.435.154,7.45,5.161,9.6,5.583,16.367.139,2.227-1.987,6.224-5.836,14.21-2.508,5.2-4.77,9.209-3.058,12.019a4.769,4.769,0,0,0,1.919,1.715Z" transform="translate(-2633.551 -2735.286)" fill="#fff"/>
            </g>
          </g>
          <g id="Group_1529" data-name="Group 1529">
            <g id="Group_1528" data-name="Group 1528">
              <path id="Path_4997" data-name="Path 4997" d="M2650.511,2810.125h0l-10.938-.115a.448.448,0,0,1-.347-.171c-6.854-8.682-9.3-15.718-7.274-20.911a12.985,12.985,0,0,1,3.739-4.909c1.621-1.509,3.021-2.812,3.34-5.263.368-2.84-1.1-4.714-2.658-6.7-1.58-2.015-3.214-4.1-3.182-7.332.035-3.62,2.137-5.817,4.363-8.142,2.051-2.143,4.173-4.359,4.908-7.931.912-4.435-.684-9.481-4.744-15a.448.448,0,0,1,.586-.653c11.646,6.789,17.484,13.5,17.351,19.936a12.251,12.251,0,0,1-1.566,5.445,13.772,13.772,0,0,0-1.732,6.97c.078,3.775,1.464,6.193,2.805,8.532a16.9,16.9,0,0,1,2.777,7.818c.127,2.051-1.4,5.2-4.446,11.469q-.671,1.382-1.435,2.963l-.674,1.389c-2.141,4.39-3.834,7.858-2.405,10.2a4.3,4.3,0,0,0,1.742,1.549.448.448,0,0,1-.206.846Zm-10.719-1.008,9.261.1a4.7,4.7,0,0,1-.843-1.019c-1.685-2.765.1-6.427,2.364-11.063l.673-1.384q.764-1.585,1.436-2.966c2.882-5.937,4.471-9.207,4.357-11.022-.2-3.13-1.393-5.218-2.661-7.428-1.4-2.437-2.841-4.956-2.923-8.958a14.736,14.736,0,0,1,1.82-7.377,11.508,11.508,0,0,0,1.479-5.077c.119-5.761-4.966-11.838-15.123-18.076,3.326,5.069,4.571,9.767,3.7,13.988-.786,3.825-3.1,6.239-5.137,8.37-2.192,2.288-4.083,4.265-4.115,7.531-.029,2.92,1.506,4.877,2.991,6.77,1.6,2.043,3.259,4.155,2.842,7.367-.36,2.771-1.943,4.244-3.619,5.8a12.265,12.265,0,0,0-3.514,4.579C2630.89,2794.1,2633.249,2800.78,2639.792,2809.117Z" transform="translate(-2631.257 -2732.944)" fill="#0dacfd"/>
            </g>
          </g>
        </g>
        <g id="Group_1533" data-name="Group 1533" transform="translate(8.501 19.89)">
          <g id="Group_1532" data-name="Group 1532">
            <g id="Group_1531" data-name="Group 1531">
              <path id="Path_4998" data-name="Path 4998" d="M2678.849,2888.2a.451.451,0,0,1-.367-.19,14.17,14.17,0,0,1-2.706-7.184c-.312-4.42,1.849-7.4,3.94-10.289,1.919-2.648,3.732-5.151,3.542-8.619-.162-2.935-1.693-4.792-3.174-6.588-1.582-1.917-3.218-3.9-3.128-7.1.106-3.807,2.6-7.545,7.4-11.111a.448.448,0,1,1,.534.719c-4.573,3.394-6.941,6.9-7.039,10.416-.081,2.864,1.378,4.634,2.924,6.507,1.573,1.907,3.2,3.879,3.376,7.108.208,3.786-1.785,6.536-3.711,9.194-2,2.756-4.061,5.6-3.771,9.7a13.275,13.275,0,0,0,2.545,6.73.448.448,0,0,1-.366.706Z" transform="translate(-2675.747 -2837.033)" fill="#0dacfd"/>
            </g>
          </g>
        </g>
      </g>
    </g>
    <rect id="Rectangle_2544" data-name="Rectangle 2544" width="192.992" height="211.625" rx="1.367" transform="translate(1274 430)" fill="#5e98f4"/>
    <g id="Group_1630" data-name="Group 1630" transform="translate(1567.309 649.795)" opacity="0.32">
      <g id="Group_1617" data-name="Group 1617" transform="translate(51.219 56.318)">
        <g id="Group_1614" data-name="Group 1614">
          <g id="Group_1612" data-name="Group 1612" transform="translate(0.609 2.839)">
            <path id="Path_5026" data-name="Path 5026" d="M4637.287,2804.16c-3.023-13.5-.671-19.536,2.468-22.464,3.847-3.588,8.549-2.208,11.3-6.441,3.4-5.219-2.018-9.981.874-15.851,3.087-6.266,11.009-4.4,15.9-10.826,2.532-3.324,3.935-8.448,2.4-16.584,9.629,14.226,9.435,21.773,7.263,26.064-2.237,4.419-6.058,4.373-8.7,10.182-3.216,7.061.512,11.341-2.142,17.879-.875,2.153-4.672,4.945-11.887,10.7-4.7,3.752-8.63,6.492-8.292,9.9.039.388-.655.666-1.54.887a5.9,5.9,0,0,1-6.038-2.29A4.517,4.517,0,0,0,4637.287,2804.16Z" transform="translate(-4635.885 -2731.995)" fill="#fff"/>
          </g>
          <g id="Group_1613" data-name="Group 1613">
            <path id="Path_5027" data-name="Path 5027" d="M4641.057,2796.381a6.707,6.707,0,0,1-5.229-2.688,4.048,4.048,0,0,0-1.4-.991l-.266-.131-.065-.291c-2.529-11.3-1.636-19.055,2.652-23.054a13.832,13.832,0,0,1,5.782-2.957c2.173-.676,4.05-1.259,5.423-3.369,1.591-2.445,1.065-4.837.505-7.369-.579-2.63-1.179-5.348.333-8.417,1.693-3.438,4.685-4.562,7.853-5.751,2.871-1.078,5.84-2.193,8.114-5.177,2.829-3.714,3.6-9.129,2.282-16.092l-.558-2.954,1.686,2.49c7.9,11.674,10.36,20.655,7.3,26.694a13.04,13.04,0,0,1-3.969,4.456,14.219,14.219,0,0,0-4.725,5.7c-1.613,3.541-1.413,6.289-1.2,9.2a17.7,17.7,0,0,1-.932,8.659c-.819,2.019-3.685,4.293-9.394,8.823l-3.936,3.128c-3.956,3.126-7.08,5.595-6.805,8.356.1,1.026-1.325,1.383-2.009,1.554A5.964,5.964,0,0,1,4641.057,2796.381Zm-5.805-4.658a4.741,4.741,0,0,1,1.556,1.2,5.268,5.268,0,0,0,5.4,2.07,3.86,3.86,0,0,0,1.059-.373c-.231-3.366,3.092-5.993,7.285-9.3l3.934-3.127c5.362-4.256,8.316-6.6,9.015-8.317,1.214-2.991,1.033-5.473.843-8.1-.214-2.937-.435-5.974,1.31-9.8a15.477,15.477,0,0,1,5.079-6.159,11.86,11.86,0,0,0,3.636-4.046c2.633-5.2.728-12.95-5.66-23.049.682,5.978-.307,10.756-2.953,14.227-2.49,3.271-5.771,4.5-8.666,5.59-3.058,1.148-5.7,2.139-7.175,5.135-1.317,2.678-.792,5.069-.232,7.6.589,2.671,1.2,5.433-.678,8.315-1.618,2.487-3.9,3.2-6.1,3.88a12.656,12.656,0,0,0-5.3,2.677C4633.692,2773.78,4632.9,2781.042,4635.251,2791.723Z" transform="translate(-4632.695 -2717.14)" fill="#0dacfd"/>
          </g>
        </g>
        <g id="Group_1616" data-name="Group 1616" transform="translate(6.947 25.648)">
          <g id="Group_1615" data-name="Group 1615">
            <path id="Path_5028" data-name="Path 5028" d="M4669.912,2897.187a.622.622,0,0,1-.613-.521,14.9,14.9,0,0,1,.709-8.046c1.72-4.342,5.121-6.18,8.408-7.958,2.971-1.607,5.778-3.125,7.143-6.415,1.153-2.78.586-5.081-.015-7.518-.626-2.541-1.273-5.168.279-8.184,1.84-3.569,5.9-5.981,12.066-7.172a.623.623,0,0,1,.236,1.224c-5.772,1.114-9.539,3.307-11.2,6.52-1.338,2.6-.774,4.889-.177,7.314.623,2.524,1.266,5.135-.044,8.292-1.534,3.7-4.669,5.394-7.7,7.034-3.233,1.749-6.288,3.4-7.843,7.323a13.676,13.676,0,0,0-.639,7.382.623.623,0,0,1-.512.717A.637.637,0,0,1,4669.912,2897.187Z" transform="translate(-4669.053 -2851.363)" fill="#0dacfd"/>
          </g>
        </g>
      </g>
      <g id="Group_1623" data-name="Group 1623" transform="translate(0 56.505)">
        <g id="Group_1620" data-name="Group 1620">
          <g id="Group_1618" data-name="Group 1618" transform="translate(0.637 2.833)">
            <path id="Path_5029" data-name="Path 5029" d="M4413.127,2805.291c5.1-14.5,2.872-20.593-.647-23.339-4.311-3.365-10.187-1.422-13.1-5.578-3.591-5.125,3.507-10.7.6-16.559-3.1-6.258-12.954-3.466-18.244-9.7-2.736-3.225-3.908-8.461-1.182-17.169-13.23,15.957-13.787,23.864-11.59,28.144,2.262,4.407,6.923,3.957,9.538,9.781,3.177,7.08-1.816,11.968.731,18.558.839,2.17,5.175,4.7,13.363,10,5.333,3.447,9.835,5.912,9.063,9.529-.088.412,1.205.017,2.26.156a7.814,7.814,0,0,0,7.122-2.427A7.112,7.112,0,0,1,4413.127,2805.291Z" transform="translate(-4367.983 -2732.944)" fill="#fff"/>
          </g>
          <g id="Group_1619" data-name="Group 1619">
            <path id="Path_5030" data-name="Path 5030" d="M4402.562,2797.831a10.716,10.716,0,0,1-1.421-.1,6.143,6.143,0,0,0-1.218.012c-.642.049-1.1.084-1.407-.264l-.2-.236.044-.417c.61-2.866-2.909-5.113-7.365-7.959l-4.46-2.866c-6.506-4.176-9.771-6.271-10.574-8.344-1.282-3.315-.748-6.229-.232-9.048.56-3.066,1.091-5.961-.488-9.479a11.883,11.883,0,0,0-5.122-5.45,11.176,11.176,0,0,1-4.4-4.3c-3.147-6.134.669-15.562,11.666-28.826l2.019-2.435-.945,3.018c-2.326,7.429-1.969,13.008,1.061,16.581,2.445,2.881,5.947,3.739,9.334,4.571,3.74.919,7.271,1.785,8.993,5.258,1.54,3.1.475,6.164-.466,8.865-.983,2.821-1.831,5.257-.182,7.612,1.437,2.049,3.665,2.465,6.244,2.948,2.28.426,4.637.865,6.728,2.5,4.848,3.782,5.134,11.87.852,24.036l-.084.24-.229.112a6.716,6.716,0,0,0-1.9,1.259A8.252,8.252,0,0,1,4402.562,2797.831Zm-1.873-1.368a4.769,4.769,0,0,1,.615.037,7.156,7.156,0,0,0,6.587-2.235,7.317,7.317,0,0,1,2.032-1.408c4-11.473,3.824-19.01-.525-22.4-1.85-1.445-4.057-1.857-6.19-2.256-2.609-.488-5.308-.991-7.035-3.456-2.017-2.876-.979-5.856.024-8.737.944-2.709,1.835-5.267.527-7.9-1.464-2.954-4.574-3.718-8.175-4.6-3.413-.836-7.28-1.786-9.985-4.975-2.906-3.425-3.606-8.418-2.1-14.869-9.082,11.48-12.326,19.937-9.647,25.156a10.024,10.024,0,0,0,3.972,3.828,13.075,13.075,0,0,1,5.579,5.983c1.737,3.872,1.147,7.1.576,10.215-.506,2.771-.984,5.388.17,8.374.654,1.7,4.2,3.972,10.083,7.746l4.459,2.865c4.606,2.942,8.295,5.3,8,8.7l.17-.013C4400.086,2796.485,4400.383,2796.463,4400.689,2796.463Z" transform="translate(-4364.647 -2718.12)" fill="#0dacfd"/>
          </g>
        </g>
        <g id="Group_1622" data-name="Group 1622" transform="translate(8.977 26.924)">
          <g id="Group_1621" data-name="Group 1621">
            <path id="Path_5031" data-name="Path 5031" d="M4441.806,2904.144a.607.607,0,0,1-.173-.024.624.624,0,0,1-.426-.771,12.028,12.028,0,0,0,.006-7.641c-1.466-3.911-5-5.321-8.749-6.813-3.533-1.409-7.187-2.865-8.686-6.633-1.277-3.213-.217-6.028.809-8.75.98-2.6,1.9-5.06.566-7.609-1.667-3.178-6.024-5.075-12.953-5.639a.622.622,0,1,1,.1-1.241c7.381.6,12.076,2.721,13.954,6.3,1.6,3.044.53,5.882-.5,8.627-.985,2.616-1.916,5.086-.815,7.852,1.3,3.269,4.549,4.564,7.989,5.936,3.832,1.526,7.794,3.106,9.452,7.532a13.236,13.236,0,0,1,.027,8.425A.625.625,0,0,1,4441.806,2904.144Z" transform="translate(-4411.628 -2859.021)" fill="#0dacfd"/>
          </g>
        </g>
      </g>
      <g id="Group_1629" data-name="Group 1629" transform="translate(28.895)">
        <g id="Group_1626" data-name="Group 1626">
          <g id="Group_1624" data-name="Group 1624" transform="translate(0.606 2.051)">
            <path id="Path_5032" data-name="Path 5032" d="M4532.857,2566.788c-14.446-18.3-15.278-29.178-12.647-35.917,3.224-8.257,11.372-9.594,12.466-18.032,1.35-10.4-10.347-13.685-10.24-24.71.114-11.768,13.507-14.718,16.25-28.049,1.419-6.9-.189-15.7-8.459-26.936,25.007,14.577,30.221,26.179,30.053,34.282-.172,8.344-6.009,11.063-5.788,21.816.269,13.072,9.055,16.85,9.795,28.717.244,3.907-3.487,10.92-10.24,24.933-4.4,9.128-8.369,16.157-5.366,21.087a8.35,8.35,0,0,0,3.367,3.009Z" transform="translate(-4519.037 -2433.144)" fill="#fff"/>
          </g>
          <g id="Group_1625" data-name="Group 1625">
            <path id="Path_5033" data-name="Path 5033" d="M4552.095,2558.955l-22.105-.231-.185-.233c-11.986-15.185-16.272-27.476-12.738-36.529,1.525-3.907,4.063-6.268,6.519-8.552,2.749-2.559,5.346-4.974,5.911-9.333.656-5.051-1.944-8.365-4.7-11.875s-5.6-7.145-5.549-12.761c.061-6.288,3.728-10.119,7.61-14.174,3.615-3.778,7.354-7.683,8.653-13.995,1.61-7.831-1.2-16.726-8.351-26.441l-1.783-2.422,2.6,1.514c20.378,11.877,30.594,23.6,30.363,34.833-.082,3.953-1.37,6.642-2.733,9.488-1.559,3.254-3.172,6.619-3.055,12.3.138,6.664,2.581,10.926,4.944,15.048,2.205,3.847,4.486,7.826,4.85,13.645.222,3.555-2.455,9.068-7.787,20.05q-1.176,2.423-2.514,5.192-.6,1.241-1.182,2.43c-3.78,7.75-6.768,13.871-4.214,18.064a7.691,7.691,0,0,0,3.121,2.779Zm-21.5-1.469,16.771.175a8.194,8.194,0,0,1-1.783-2.039c-2.907-4.776.211-11.167,4.158-19.259.386-.791.782-1.6,1.179-2.424q1.337-2.777,2.516-5.2c5.071-10.446,7.865-16.2,7.664-19.428-.345-5.529-2.454-9.208-4.688-13.1-2.44-4.258-4.965-8.659-5.107-15.64-.123-5.98,1.554-9.482,3.177-12.868,1.3-2.72,2.536-5.29,2.61-8.975.212-10.291-8.949-21.129-27.24-32.241,6.114,9.09,8.429,17.5,6.88,25.034-1.371,6.664-5.41,10.882-8.974,14.6-3.707,3.873-7.209,7.53-7.265,13.325-.051,5.18,2.661,8.637,5.283,11.98,2.789,3.557,5.674,7.235,4.953,12.8-.624,4.8-3.38,7.369-6.3,10.083-2.353,2.189-4.785,4.452-6.207,8.094C4514.883,2530.982,4519.044,2542.78,4530.6,2557.486Z" transform="translate(-4515.867 -2422.409)" fill="#0dacfd"/>
          </g>
        </g>
        <g id="Group_1628" data-name="Group 1628" transform="translate(14.915 36.325)">
          <g id="Group_1627" data-name="Group 1627">
            <path id="Path_5034" data-name="Path 5034" d="M4599.2,2701.964a.625.625,0,0,1-.51-.264,24.69,24.69,0,0,1-4.717-12.522c-.545-7.7,3.23-12.906,6.88-17.945,3.387-4.671,6.583-9.084,6.247-15.229-.286-5.2-2.991-8.481-5.605-11.652-2.756-3.342-5.605-6.8-5.451-12.35.186-6.626,4.531-13.142,12.918-19.368a.622.622,0,0,1,.742,1c-8.063,5.987-12.241,12.177-12.415,18.4-.142,5.086,2.437,8.213,5.167,11.524,2.743,3.326,5.58,6.765,5.888,12.377.362,6.586-3.117,11.386-6.481,16.028-3.52,4.859-7.16,9.881-6.647,17.126a23.46,23.46,0,0,0,4.494,11.892.622.622,0,0,1-.509.982Z" transform="translate(-4593.924 -2612.511)" fill="#0dacfd"/>
          </g>
        </g>
      </g>
    </g>
    <g id="Group_1755" data-name="Group 1755" transform="translate(1183 784.912)">
      <g id="Group_1754" data-name="Group 1754">
        <g id="Group_1753" data-name="Group 1753">
          <path id="Path_5076" data-name="Path 5076" d="M2868.98,3130.146a.6.6,0,0,1-.576.623H2354.01a.61.61,0,0,1-.575-.623.6.6,0,0,1,.575-.622H2868.4A.6.6,0,0,1,2868.98,3130.146Z" transform="translate(-2353.435 -3129.524)" fill="#0dacfd"/>
        </g>
      </g>
    </g>
    <g id="Group_1766" data-name="Group 1766" transform="translate(1376.076 740.189)" opacity="0.17">
      <g id="Group_1760" data-name="Group 1760" transform="translate(0 0)">
        <g id="Group_1757" data-name="Group 1757" transform="translate(0.839 0.838)">
          <g id="Group_1756" data-name="Group 1756">
            <circle id="Ellipse_88" data-name="Ellipse 88" cx="12.954" cy="12.954" r="12.954" fill="#fff"/>
          </g>
        </g>
        <g id="Group_1759" data-name="Group 1759">
          <g id="Group_1758" data-name="Group 1758">
            <path id="Path_5077" data-name="Path 5077" d="M3377.659,2923.06a13.793,13.793,0,1,1,13.793-13.793A13.809,13.809,0,0,1,3377.659,2923.06Zm0-25.908a12.116,12.116,0,1,0,12.116,12.116A12.13,12.13,0,0,0,3377.659,2897.152Z" transform="translate(-3363.865 -2895.475)" fill="#4084f3"/>
          </g>
        </g>
      </g>
      <g id="Group_1765" data-name="Group 1765" transform="translate(8.342 9.349)">
        <g id="Group_1762" data-name="Group 1762" transform="translate(0.838 0.838)">
          <g id="Group_1761" data-name="Group 1761">
            <path id="Path_5078" data-name="Path 5078" d="M3411.906,2953.5l1.74,1.438,9.422-6.153" transform="translate(-3411.906 -2948.789)" fill="#fff"/>
          </g>
        </g>
        <g id="Group_1764" data-name="Group 1764">
          <g id="Group_1763" data-name="Group 1763">
            <path id="Path_5079" data-name="Path 5079" d="M3410.1,2952.231a.838.838,0,0,1-.534-.192l-1.74-1.438a.838.838,0,0,1,1.068-1.293l1.264,1.045,8.9-5.815a.838.838,0,0,1,.917,1.4l-9.421,6.153A.84.84,0,0,1,3410.1,2952.231Z" transform="translate(-3407.521 -2944.402)" fill="#4084f3"/>
          </g>
        </g>
      </g>
    </g>
    <g id="Group_1777" data-name="Group 1777" transform="translate(1393.308 393.468)" opacity="0.17">
      <g id="Group_1771" data-name="Group 1771" transform="translate(0 0)">
        <g id="Group_1768" data-name="Group 1768" transform="translate(0)">
          <g id="Group_1767" data-name="Group 1767">
            <circle id="Ellipse_89" data-name="Ellipse 89" cx="7.925" cy="7.925" r="7.925" transform="translate(0 6.066) rotate(-22.5)" fill="#fff"/>
          </g>
        </g>
        <g id="Group_1770" data-name="Group 1770" transform="translate(1.916 1.917)">
          <g id="Group_1769" data-name="Group 1769">
            <path id="Path_5080" data-name="Path 5080" d="M3472.511,1107.876a8.438,8.438,0,1,1,8.438-8.438A8.448,8.448,0,0,1,3472.511,1107.876Zm0-15.85a7.412,7.412,0,1,0,7.413,7.412A7.421,7.421,0,0,0,3472.511,1092.026Z" transform="translate(-3464.072 -1091)" fill="#4084f3"/>
          </g>
        </g>
      </g>
      <g id="Group_1776" data-name="Group 1776" transform="translate(7.02 7.636)">
        <g id="Group_1773" data-name="Group 1773" transform="translate(0.513 0.513)">
          <g id="Group_1772" data-name="Group 1772">
            <path id="Path_5081" data-name="Path 5081" d="M3493.463,1126.5l1.065.88,5.764-3.764" transform="translate(-3493.463 -1123.616)" fill="#fff"/>
          </g>
        </g>
        <g id="Group_1775" data-name="Group 1775">
          <g id="Group_1774" data-name="Group 1774">
            <path id="Path_5082" data-name="Path 5082" d="M3492.357,1125.722a.512.512,0,0,1-.327-.117l-1.064-.88a.513.513,0,0,1,.653-.791l.773.639,5.448-3.558a.513.513,0,0,1,.562.859l-5.764,3.764A.514.514,0,0,1,3492.357,1125.722Z" transform="translate(-3490.78 -1120.933)" fill="#4084f3"/>
          </g>
        </g>
      </g>
    </g>
    <g id="Group_1788" data-name="Group 1788" transform="translate(1662.026 665.427)" opacity="0.17">
      <g id="Group_1782" data-name="Group 1782" transform="translate(0 0)">
        <g id="Group_1779" data-name="Group 1779" transform="translate(0.839 0.838)">
          <g id="Group_1778" data-name="Group 1778">
            <circle id="Ellipse_90" data-name="Ellipse 90" cx="12.954" cy="12.954" r="12.954" fill="#fff"/>
          </g>
        </g>
        <g id="Group_1781" data-name="Group 1781">
          <g id="Group_1780" data-name="Group 1780">
            <path id="Path_5083" data-name="Path 5083" d="M4874.131,2531.8a13.793,13.793,0,1,1,13.792-13.792A13.809,13.809,0,0,1,4874.131,2531.8Zm0-25.909a12.116,12.116,0,1,0,12.116,12.116A12.129,12.129,0,0,0,4874.131,2505.9Z" transform="translate(-4860.337 -2504.219)" fill="#4084f3"/>
          </g>
        </g>
      </g>
      <g id="Group_1787" data-name="Group 1787" transform="translate(8.342 9.349)">
        <g id="Group_1784" data-name="Group 1784" transform="translate(0.838 0.838)">
          <g id="Group_1783" data-name="Group 1783">
            <path id="Path_5084" data-name="Path 5084" d="M4908.379,2562.247l1.74,1.438,9.422-6.153" transform="translate(-4908.379 -2557.532)" fill="#fff"/>
          </g>
        </g>
        <g id="Group_1786" data-name="Group 1786">
          <g id="Group_1785" data-name="Group 1785">
            <path id="Path_5085" data-name="Path 5085" d="M4906.571,2560.976a.835.835,0,0,1-.534-.192l-1.74-1.438a.838.838,0,1,1,1.067-1.292l1.265,1.045,8.9-5.815a.838.838,0,0,1,.917,1.4l-9.421,6.153A.839.839,0,0,1,4906.571,2560.976Z" transform="translate(-4903.994 -2553.147)" fill="#4084f3"/>
          </g>
        </g>
      </g>
    </g>
    <g id="Group_1799" data-name="Group 1799" transform="translate(1220.6 560.651)" opacity="0.17">
      <g id="Group_1793" data-name="Group 1793" transform="translate(0 0)">
        <g id="Group_1790" data-name="Group 1790" transform="translate(0)">
          <g id="Group_1789" data-name="Group 1789">
            <circle id="Ellipse_91" data-name="Ellipse 91" cx="12.167" cy="12.167" r="12.167" transform="translate(0 24.216) rotate(-84.345)" fill="#fff"/>
          </g>
        </g>
        <g id="Group_1792" data-name="Group 1792" transform="translate(0.352 0.352)">
          <g id="Group_1791" data-name="Group 1791">
            <path id="Path_5086" data-name="Path 5086" d="M2565.005,1983.644a12.954,12.954,0,1,1,12.954-12.954A12.969,12.969,0,0,1,2565.005,1983.644Zm0-24.334a11.38,11.38,0,1,0,11.379,11.38A11.393,11.393,0,0,0,2565.005,1959.31Z" transform="translate(-2552.05 -1957.735)" fill="#4084f3"/>
          </g>
        </g>
      </g>
      <g id="Group_1798" data-name="Group 1798" transform="translate(8.187 9.133)">
        <g id="Group_1795" data-name="Group 1795" transform="translate(0.787 0.787)">
          <g id="Group_1794" data-name="Group 1794">
            <path id="Path_5087" data-name="Path 5087" d="M2597.171,2012.236l1.635,1.35,8.849-5.778" transform="translate(-2597.171 -2007.808)" fill="#fff"/>
          </g>
        </g>
        <g id="Group_1797" data-name="Group 1797">
          <g id="Group_1796" data-name="Group 1796">
            <path id="Path_5088" data-name="Path 5088" d="M2595.473,2011.042a.787.787,0,0,1-.5-.18l-1.634-1.351a.787.787,0,1,1,1-1.214l1.187.982,8.364-5.462a.787.787,0,0,1,.861,1.319l-8.848,5.778A.79.79,0,0,1,2595.473,2011.042Z" transform="translate(-2593.052 -2003.688)" fill="#4084f3"/>
          </g>
        </g>
      </g>
    </g>
    <g id="Group_1810" data-name="Group 1810" transform="translate(1557.094 411.913)" opacity="0.17">
      <g id="Group_1804" data-name="Group 1804" transform="translate(0 0)">
        <g id="Group_1801" data-name="Group 1801" transform="translate(0.581 0.581)">
          <g id="Group_1800" data-name="Group 1800">
            <circle id="Ellipse_92" data-name="Ellipse 92" cx="8.972" cy="8.972" r="8.972" fill="#fff"/>
          </g>
        </g>
        <g id="Group_1803" data-name="Group 1803">
          <g id="Group_1802" data-name="Group 1802">
            <path id="Path_5089" data-name="Path 5089" d="M4320.744,1196.6a9.552,9.552,0,1,1,9.552-9.552A9.564,9.564,0,0,1,4320.744,1196.6Zm0-17.943a8.391,8.391,0,1,0,8.391,8.391A8.4,8.4,0,0,0,4320.744,1178.656Z" transform="translate(-4311.191 -1177.495)" fill="#4084f3"/>
          </g>
        </g>
      </g>
      <g id="Group_1809" data-name="Group 1809" transform="translate(5.777 6.475)">
        <g id="Group_1806" data-name="Group 1806" transform="translate(0.58 0.58)">
          <g id="Group_1805" data-name="Group 1805">
            <path id="Path_5090" data-name="Path 5090" d="M4344.462,1217.684l1.205,1,6.525-4.261" transform="translate(-4344.462 -1214.419)" fill="#fff"/>
          </g>
        </g>
        <g id="Group_1808" data-name="Group 1808">
          <g id="Group_1807" data-name="Group 1807">
            <path id="Path_5091" data-name="Path 5091" d="M4343.21,1216.8a.584.584,0,0,1-.37-.133l-1.2-1a.58.58,0,0,1,.739-.9l.876.724,6.167-4.027a.581.581,0,0,1,.636.972l-6.526,4.261A.579.579,0,0,1,4343.21,1216.8Z" transform="translate(-4341.424 -1211.381)" fill="#4084f3"/>
          </g>
        </g>
      </g>
    </g>
    <g id="Group_2283" data-name="Group 2283" transform="translate(1012.272 401.629)">
      <g id="Group_2279" data-name="Group 2279" transform="translate(296.728 166.912)">
        <rect id="Rectangle_2647" data-name="Rectangle 2647" width="122.644" height="32.355" rx="4.628" transform="translate(0 0)" fill="#fff"/>
        <g id="Group_2278" data-name="Group 2278" transform="translate(12.102 9.692)">
          <g id="Group_2273-2" data-name="Group 2273">
            <path id="Path_7038" data-name="Path 7038" d="M315.777,157.664l3.578,1.938-1.609,2.693-3.612-2.136.066,3.974h-3.086l.033-4.007-3.612,2.169-1.576-2.693,3.579-1.938-3.579-1.971L307.534,153l3.612,2.167-.033-4.007H314.2l-.066,4.007L317.746,153l1.609,2.692Z" transform="translate(-305.958 -151.162)" fill="#1569ef"/>
          </g>
          <g id="Group_2274" data-name="Group 2274" transform="translate(21.262)">
            <path id="Path_7039" data-name="Path 7039" d="M331.992,157.665l3.579,1.936-1.609,2.693-3.612-2.134.066,3.973H327.33l.033-4.005-3.612,2.167-1.576-2.693,3.579-1.936-3.579-1.972L323.751,153l3.612,2.167-.033-4.007h3.086l-.066,4.007L333.963,153l1.609,2.692Z" transform="translate(-322.175 -151.162)" fill="#1569ef"/>
          </g>
          <g id="Group_2275" data-name="Group 2275" transform="translate(42.522)">
            <path id="Path_7040" data-name="Path 7040" d="M348.21,157.664l3.578,1.938-1.609,2.693-3.612-2.134.066,3.973h-3.086l.033-4.005-3.612,2.167-1.576-2.693,3.579-1.938-3.579-1.969L339.967,153l3.612,2.167-.033-4.007h3.086l-.066,4.007L350.179,153l1.609,2.693Z" transform="translate(-338.391 -151.162)" fill="#1569ef"/>
          </g>
          <g id="Group_2276" data-name="Group 2276" transform="translate(63.783)">
            <path id="Path_7041" data-name="Path 7041" d="M364.425,157.664,368,159.6l-1.609,2.693-3.612-2.134.066,3.973h-3.088l.034-4.007-3.612,2.169-1.576-2.693,3.578-1.938-3.578-1.971L356.184,153l3.612,2.167-.034-4.007h3.088l-.066,4.007L366.4,153,368,155.693Z" transform="translate(-354.608 -151.162)" fill="#1569ef"/>
          </g>
          <g id="Group_2277" data-name="Group 2277" transform="translate(85.044)">
            <path id="Path_7042" data-name="Path 7042" d="M380.643,157.665l3.578,1.936-1.609,2.693L379,160.16l.066,3.973h-3.086l.033-4.005-3.612,2.167-1.576-2.693,3.579-1.936-3.579-1.972L372.4,153l3.612,2.167-.033-4.007h3.086L379,155.169,382.612,153l1.609,2.692Z" transform="translate(-370.824 -151.162)" fill="#1569ef"/>
          </g>
        </g>
      </g>
      <g id="Group_2282" data-name="Group 2282" transform="translate(308.48 69.371)">
        <path id="Path_7045" data-name="Path 7045" d="M35.051,0A35.051,35.051,0,1,1,0,35.051,35.051,35.051,0,0,1,35.051,0Z" transform="translate(0 49.57) rotate(-45)" fill="#fff"/>
        <g id="Group_2281" data-name="Group 2281" transform="translate(32.109 27.327)">
          <path id="Path_7043" data-name="Path 7043" d="M361.349,105.681H333.937a3.754,3.754,0,0,0-3.755,3.755v16.7a3.755,3.755,0,0,0,3.755,3.755h27.412a3.756,3.756,0,0,0,3.756-3.755v-16.7A3.755,3.755,0,0,0,361.349,105.681Zm-11.185,18.575h-5.042l1.057-6.824a3.333,3.333,0,1,1,2.93,0Z" transform="translate(-330.182 -85.403)" fill="#407bff"/>
          <g id="Group_2280" data-name="Group 2280" transform="translate(3.964)">
            <path id="Path_7044" data-name="Path 7044" d="M338.816,107.816l-.517-2.568a8.442,8.442,0,0,1,16.554-3.325l.515,2.568,4.831-.97-.515-2.568a13.37,13.37,0,1,0-26.216,5.265l.515,2.568Z" transform="translate(-333.205 -90.214)" fill="#407bff"/>
          </g>
        </g>
      </g>
    </g>
    <g id="Group_2290" data-name="Group 2290" transform="translate(1191.881 340.181)">
      <g id="Group_2289" data-name="Group 2289" transform="translate(235.118 104.642)">
        <path id="Path_7046" data-name="Path 7046" d="M333.8,176.624c.273.4.411.625.59.917l.486.813c.315.537.591,1.074.87,1.612.544,1.075,1.058,2.15,1.518,3.239a59.965,59.965,0,0,1,2.357,6.63,69.5,69.5,0,0,1,2.578,13.628l.085.859c.015.123.026.316.035.519l.024.585a13.736,13.736,0,0,1-.132,2.259,18.176,18.176,0,0,1-1.078,4.05,27.69,27.69,0,0,1-3.761,6.5,46.275,46.275,0,0,1-10.121,9.58l-3-3.508a62.727,62.727,0,0,0,7.22-9.99,23.244,23.244,0,0,0,2.2-5.132,10.184,10.184,0,0,0,.357-2.331,5.56,5.56,0,0,0-.036-1.011l-.034-.233c-.008-.071-.016-.149-.045-.3l-.136-.765a85.071,85.071,0,0,0-2.955-11.963c-.625-1.942-1.4-3.818-2.183-5.661-.387-.925-.815-1.822-1.256-2.7l-.674-1.277-.335-.606-.276-.474Z" transform="translate(-227.346 -98.366)" fill="#803e3c"/>
        <path id="Path_7047" data-name="Path 7047" d="M323.7,224.117l3.937,8.313,3.122-7.029s-2.767-6.088-6.511-5.532Z" transform="translate(-227.395 -94.598)" fill="#7f3e3b"/>
        <path id="Path_7048" data-name="Path 7048" d="M330.139,232.395l3.126-5.126-2.825-2.315-3.122,7.028Z" transform="translate(-227.079 -94.152)" fill="#7f3e3b"/>
        <path id="Path_7049" data-name="Path 7049" d="M313.8,408.4a11.066,11.066,0,0,0,2.4-.326.215.215,0,0,0,.068-.389c-.311-.206-3.078-1.991-4.137-1.511a.738.738,0,0,0-.429.607,1.228,1.228,0,0,0,.358,1.146A2.611,2.611,0,0,0,313.8,408.4Zm1.795-.634c-1.586.316-2.778.262-3.239-.159a.814.814,0,0,1-.222-.768.308.308,0,0,1,.179-.273C312.877,406.313,314.471,407.087,315.6,407.768Z" transform="translate(-228.442 -78.357)" fill="#407bff"/>
        <path id="Path_7050" data-name="Path 7050" d="M316,408.253a.213.213,0,0,0,.109-.028.217.217,0,0,0,.108-.187c0-.111-.012-2.733-1-3.609a1.123,1.123,0,0,0-.913-.288.752.752,0,0,0-.726.6c-.2,1.027,1.451,2.992,2.32,3.483A.2.2,0,0,0,316,408.253Zm-1.549-3.691a.7.7,0,0,1,.477.189c.59.524.794,2,.844,2.868-.866-.691-1.9-2.167-1.774-2.793.021-.1.079-.224.356-.258A.762.762,0,0,1,314.447,404.562Z" transform="translate(-228.279 -78.528)" fill="#407bff"/>
        <path id="Path_7051" data-name="Path 7051" d="M304.638,404.168a.216.216,0,0,0-.148-.362c-.451-.023-4.359-.185-5.239.768a.726.726,0,0,0-.053.064.693.693,0,0,0-.092.674,1.2,1.2,0,0,0,.793.791c1.266.392,3.493-1.026,4.709-1.907A.264.264,0,0,0,304.638,404.168Zm-5.062.689c.485-.525,2.635-.668,4.251-.641-1.694,1.148-3.092,1.695-3.8,1.475a.774.774,0,0,1-.514-.524.268.268,0,0,1,.032-.272A.355.355,0,0,1,299.576,404.857Z" transform="translate(-229.543 -78.559)" fill="#407bff"/>
        <path id="Path_7052" data-name="Path 7052" d="M304.545,404.372a.311.311,0,0,0,.028-.038.215.215,0,0,0,0-.214c-.051-.091-1.266-2.23-2.7-2.618a1.559,1.559,0,0,0-1.24.161c-.518.3-.547.653-.482.892.278,1.007,3.05,1.895,4.241,1.886A.217.217,0,0,0,304.545,404.372Zm-3.9-2.18a.9.9,0,0,1,.207-.158,1.127,1.127,0,0,1,.91-.116,5,5,0,0,1,2.229,2.068c-1.286-.147-3.256-.942-3.422-1.546A.237.237,0,0,1,300.641,402.192Z" transform="translate(-229.451 -78.763)" fill="#407bff"/>
        <path id="Path_7053" data-name="Path 7053" d="M316.639,147.33c-1.059,5.4-3.439,17.192.342,20.8,0,0-1.478,5.482-11.519,5.482-11.04,0-5.276-5.482-5.276-5.482,6.026-1.438,5.871-5.91,4.821-10.109Z" transform="translate(-229.576 -100.92)" fill="#7f3e3b"/>
        <path id="Path_7054" data-name="Path 7054" d="M298.533,135.85a.443.443,0,0,0,.194-.046.433.433,0,0,0,.192-.579,4.282,4.282,0,0,0-3.129-2.391.432.432,0,0,0-.1.858h0a3.416,3.416,0,0,1,2.457,1.92A.432.432,0,0,0,298.533,135.85Z" transform="translate(-229.87 -102.184)" fill="#263238"/>
        <path id="Path_7055" data-name="Path 7055" d="M295.5,139.952a19.6,19.6,0,0,1-3.175,4.33,3.16,3.16,0,0,0,2.539.81Z" transform="translate(-230.13 -101.563)" fill="#630f0f"/>
        <path id="Path_7056" data-name="Path 7056" d="M296.129,138.989c-.089.728-.549,1.272-1.025,1.213s-.79-.7-.7-1.427.55-1.272,1.026-1.212S296.22,138.259,296.129,138.989Z" transform="translate(-229.95 -101.772)" fill="#263238"/>
        <path id="Path_7057" data-name="Path 7057" d="M295.67,137.681l-1.688-.722S294.712,138.438,295.67,137.681Z" transform="translate(-229.986 -101.824)" fill="#263238"/>
        <path id="Path_7058" data-name="Path 7058" d="M314.159,403.873l-8.868,2.071-5.389-20.4,8.868-2.071Z" transform="translate(-229.47 -80.329)" fill="#7f3e3b"/>
        <path id="Path_7059" data-name="Path 7059" d="M326.271,409.416h-9.107l.714-21.089h9.107Z" transform="translate(-227.964 -79.906)" fill="#7f3e3b"/>
        <path id="Path_7060" data-name="Path 7060" d="M317.552,406.755h10.232a.72.72,0,0,1,.726.622l1.165,8.094a1.463,1.463,0,0,1-1.459,1.62c-3.567-.062-5.286-.272-9.786-.272-2.768,0-6.811.288-10.634.288-3.739,0-4.026-3.78-2.434-4.122,7.136-1.535,8.264-3.652,10.668-5.671A2.378,2.378,0,0,1,317.552,406.755Z" transform="translate(-229.073 -78.299)"/>
        <path id="Path_7061" data-name="Path 7061" d="M304.972,403.241l9.294-4.276a.722.722,0,0,1,.921.262l4.441,6.867a1.462,1.462,0,0,1-.649,2.081c-3.266,1.435-4.915,1.963-9,3.843-2.515,1.157-7.6,3.811-11.068,5.409-3.4,1.562-5.238-1.751-3.935-2.728,5.841-4.377,7.509-7.473,8.849-10.313A2.38,2.38,0,0,1,304.972,403.241Z" transform="translate(-229.936 -78.985)"/>
        <g id="Group_2284" data-name="Group 2284" transform="translate(70.436 303.149)">
          <path id="Path_7062" data-name="Path 7062" d="M299.905,385.551l2.885,10.928,8.763-2.486-2.776-10.515Z" transform="translate(-299.905 -383.478)" opacity="0.2"/>
          <path id="Path_7063" data-name="Path 7063" d="M326.96,388.332h-9.11l-.364,10.87h9.11Z" transform="translate(-298.372 -383.055)" opacity="0.2"/>
        </g>
        <path id="Path_7064" data-name="Path 7064" d="M330.777,168.374c3.783.83,7.823,14.439,7.823,14.439l-10.7,11.373s-8.875-12.781-7.067-17.482C322.72,171.808,326.305,167.394,330.777,168.374Z" transform="translate(-227.666 -99.097)" fill="#141515"/>
        <path id="Path_7065" data-name="Path 7065" d="M324.78,176.419c-1.913-1.75-3.207-1.229-4.088.163-.87,4.044,4.284,12.514,6.36,15.721C328.009,188.476,329.107,180.4,324.78,176.419Z" transform="translate(-227.665 -98.48)" opacity="0.4"/>
        <path id="Path_7066" data-name="Path 7066" d="M285.994,168.818s-4.338,1.527,4.352,54.963h36.985c-.621-15.053-.638-24.336,6.557-55.227a109.056,109.056,0,0,0-15.706-2.069,117.681,117.681,0,0,0-16.795,0C294.174,167.143,285.994,168.818,285.994,168.818Z" transform="translate(-230.777 -99.276)" fill="#141515"/>
        <path id="Path_7067" data-name="Path 7067" d="M285.6,187.966c.239,2.6.554,5.523.968,8.828,3.029-2.729,5.506-10.487,4.6-15.014A26.735,26.735,0,0,0,285.6,187.966Z" transform="translate(-230.716 -97.916)" opacity="0.4"/>
        <path id="Path_7068" data-name="Path 7068" d="M293.146,180.3a160.518,160.518,0,0,1-6.722,14.737,90.518,90.518,0,0,1-8.681,14.128l-.7.856-.347.427c-.12.144-.213.271-.406.467a13.305,13.305,0,0,1-2.147,1.91,17.681,17.681,0,0,1-4.546,2.271,33.045,33.045,0,0,1-8.741,1.539,64.768,64.768,0,0,1-16.481-1.463l.6-4.573c2.5.013,5.12-.042,7.646-.2a60.874,60.874,0,0,0,7.465-.834,29.154,29.154,0,0,0,6.674-1.861,10.2,10.2,0,0,0,2.4-1.464,4.848,4.848,0,0,0,.744-.777,3.276,3.276,0,0,0,.222-.3l.253-.359.509-.714a109.877,109.877,0,0,0,7.277-13.169c2.206-4.624,4.335-9.417,6.332-14.1Z" transform="translate(-234.311 -98.348)" fill="#803e3c"/>
        <path id="Path_7069" data-name="Path 7069" d="M286.717,168.631c-4.526,1.1-10.1,13.53-10.1,13.53l9.394,13.8s12.508-15.746,11.021-20.558C295.488,170.394,292.208,167.292,286.717,168.631Z" transform="translate(-231.5 -99.09)" fill="#141515"/>
        <path id="Path_7070" data-name="Path 7070" d="M248.023,208.8l-7.836-3.618-.787,7.791s6.549,1.928,9.778-.048Z" transform="translate(-234.745 -95.875)" fill="#7f3e3b"/>
        <path id="Path_7071" data-name="Path 7071" d="M235.866,204.46l-.747,5.932,4.653,2.645.788-7.79Z" transform="translate(-235.118 -95.939)" fill="#7f3e3b"/>
        <path id="Path_7072" data-name="Path 7072" d="M320.957,140.543c-1.658,8.886-2.17,12.681-7.26,16.717-7.656,6.071-18.207,2.092-19.237-7.109-.928-8.281,1.938-21.42,11.143-23.9A12.327,12.327,0,0,1,320.957,140.543Z" transform="translate(-229.959 -102.797)" fill="#7f3e3b"/>
        <path id="Path_7073" data-name="Path 7073" d="M301.26,142.838c-.508,4.53-.7,16.3,9.249,16.671,12.2.452,15.848-9.966,14.761-14.134,6.342-5.164,7.259-14.043.128-20.838s-22.831-3-27.218,3.624C292.744,136.366,301.26,142.838,301.26,142.838Z" transform="translate(-229.778 -103.22)"/>
        <path id="Path_7074" data-name="Path 7074" d="M312.117,127.326c-.589-4.778-.132-8.076,4.338-8.076s10.585,1.623,12.827,6.2,2.423,11.736-3.828,11.011S312.823,133.045,312.117,127.326Z" transform="translate(-228.422 -103.368)" fill="#fff"/>
        <path id="Path_7075" data-name="Path 7075" d="M318.488,127.451c-1.064-5.7,4.013-21.74,16.4-22.782,5.738-.484,8.4,5.693,5.39,6.709,5.421-.065,8.915,7.12,3.845,8.2,4.008,2.56,3.01,7.828-2.7,10.41C337.219,131.895,319.962,135.339,318.488,127.451Z" transform="translate(-227.861 -104.642)"/>
        <path id="Path_7076" data-name="Path 7076" d="M331.716,132.2c-3.986,0-8.154-.586-10.736-2.315a5.332,5.332,0,0,1-2.556-4.138.272.272,0,0,1,.25-.291.267.267,0,0,1,.292.25,4.808,4.808,0,0,0,2.316,3.727c4.92,3.294,16.29,2.229,19.853,1.065,3.065-1,5.14-2.939,5.552-5.185a4.49,4.49,0,0,0-1.82-4.4.271.271,0,1,1,.34-.423,5.074,5.074,0,0,1,2.015,4.92c-.448,2.446-2.661,4.541-5.919,5.6A35.477,35.477,0,0,1,331.716,132.2Z" transform="translate(-227.855 -103.266)"/>
        <path id="Path_7077" data-name="Path 7077" d="M298.415,140.091A6.771,6.771,0,0,0,297.251,145c.362,2.28,2.585,2.431,4.194.97,1.449-1.317,3.006-4.088,1.82-5.979C302.1,138.129,299.665,138.363,298.415,140.091Z" transform="translate(-229.707 -101.673)" fill="#7f3e3b"/>
        <path id="Path_7078" data-name="Path 7078" d="M298.894,219.161s5.285,62.5,10.769,97.729c4.429,28.453,7.921,94.958,7.921,94.958H330s4.416-64.519,2.168-92.658c-5.688-71.209,7-77.01-6.059-100.028Z" transform="translate(-229.558 -94.657)" fill="#98b8ff"/>
        <path id="Path_7079" data-name="Path 7079" d="M314.214,240.89a60.683,60.683,0,0,0-11.731,17.7c1.446,14.047,3.165,29.637,4.99,43.292A119.988,119.988,0,0,0,314.214,240.89Z" transform="translate(-229.245 -92.762)" opacity="0.4"/>
        <path id="Path_7080" data-name="Path 7080" d="M291.964,218.8s-11.464,68.264-13.277,99.034c4.5,28.453,22.921,88.591,22.921,88.591l11.3-4.092s-6.249-65.578-13.082-83.532c15.3-51.5,26.539-64.52,23.268-99.606C315.29,219.193,291.964,218.8,291.964,218.8Z" transform="translate(-231.32 -94.688)" fill="#98b8ff"/>
        <path id="Path_7081" data-name="Path 7081" d="M298.532,394.959l15.264-4.144-.865-6.084-16.343,4.419Z" transform="translate(-229.759 -80.22)"/>
        <path id="Path_7082" data-name="Path 7082" d="M314.529,397.111h15.817l.831-5.549L314.439,391Z" transform="translate(-228.202 -79.674)"/>
        <g id="Group_2285" data-name="Group 2285" transform="translate(58.421 122.056)">
          <path id="Path_7083" data-name="Path 7083" d="M327.542,217.186l1.668,3.311c.129.258-.175.52-.6.52H289.819c-.334,0-.61-.164-.631-.374l-.334-3.311c-.023-.229.266-.423.631-.423H326.94A.672.672,0,0,1,327.542,217.186Z" transform="translate(-288.854 -216.909)" fill="#407bff"/>
          <path id="Path_7084" data-name="Path 7084" d="M327.542,217.186l1.668,3.311c.129.258-.175.52-.6.52H289.819c-.334,0-.61-.164-.631-.374l-.334-3.311c-.023-.229.266-.423.631-.423H326.94A.672.672,0,0,1,327.542,217.186Z" transform="translate(-288.854 -216.909)" opacity="0.5"/>
        </g>
        <path id="Path_7085" data-name="Path 7085" d="M319.881,221.4h1c.2,0,.352-.1.339-.228l-.471-4.3c-.014-.126-.188-.229-.388-.229h-1c-.2,0-.351.1-.338.229l.471,4.3C319.506,221.3,319.681,221.4,319.881,221.4Z" transform="translate(-227.803 -94.877)" fill="#407bff"/>
        <g id="Group_2288" data-name="Group 2288" transform="translate(61.97 67.276)">
          <path id="Path_7086" data-name="Path 7086" d="M308.762,194.086a.542.542,0,0,1-.524-.4c-3.548-13.106-10.92-23.885-14.436-25.547a1.211,1.211,0,0,0-.916-.151.543.543,0,1,1-.447-.99,2.146,2.146,0,0,1,1.828.159c3.753,1.774,11.189,12.43,14.91,25.842,2.666-.034,6.779-.366,7.771-.45,1.243-1.476,10.359-12.871,6.948-25.337a.543.543,0,1,1,1.048-.287c3.8,13.876-7.212,26.385-7.324,26.509a.542.542,0,0,1-.358.179C317.207,193.615,311.785,194.086,308.762,194.086Z" transform="translate(-292.118 -166.522)" fill="#fff"/>
          <g id="Group_2287" data-name="Group 2287" transform="translate(11.596 10.926)">
            <g id="Group_2286" data-name="Group 2286">
              <path id="Path_7087" data-name="Path 7087" d="M325.841,200.895c-5.926-11.109-8.35-11.885-9.41-15.457a18.364,18.364,0,0,1,3.379-5.426c-.727-.2-2.266-.51-3.231-.7.11-.486.222-.967.332-1.427a10.178,10.178,0,0,0-3.314.149l-.038-1.1a13.87,13.87,0,0,0-4.213-.267c.121.5.242,1.032.364,1.566-1.059.2-2.745.541-3.543.763a15.558,15.558,0,0,1,3.32,6.06c-3.191,5.485-15.611,40.781,4.584,43.435S331.766,212,325.841,200.895Z" transform="translate(-302.784 -176.571)" fill="#fff"/>
              <path id="Path_7088" data-name="Path 7088" d="M325.841,200.895c-5.926-11.109-8.35-11.885-9.41-15.457a18.364,18.364,0,0,1,3.379-5.426c-.727-.2-2.266-.51-3.231-.7.11-.486.222-.967.332-1.427a10.178,10.178,0,0,0-3.314.149l-.038-1.1a13.87,13.87,0,0,0-4.213-.267c.121.5.242,1.032.364,1.566-1.059.2-2.745.541-3.543.763a15.558,15.558,0,0,1,3.32,6.06c-3.191,5.485-15.611,40.781,4.584,43.435S331.766,212,325.841,200.895Z" transform="translate(-302.784 -176.571)" fill="#fff"/>
            </g>
            <path id="Path_7089" data-name="Path 7089" d="M308.27,183.436a6.955,6.955,0,0,0-.158,1.7c-.023.408,1.064.68,2.287.793s6.274.317,6.115-.249.249-1.336.272-1.811-2.016-.5-3.715-.431S308.61,182.824,308.27,183.436Z" transform="translate(-302.319 -175.995)" fill="#141515"/>
          </g>
        </g>
        <path id="Path_7090" data-name="Path 7090" d="M297.517,221.4h1c.2,0,.351-.1.338-.228l-.471-4.3c-.014-.126-.188-.229-.388-.229h-1c-.2,0-.351.1-.338.229l.471,4.3C297.143,221.3,297.317,221.4,297.517,221.4Z" transform="translate(-229.753 -94.877)" fill="#407bff"/>
      </g>
    </g>
  </g>
</svg>
