<svg xmlns="http://www.w3.org/2000/svg" width="215.914" height="159.609" viewBox="0 0 215.914 159.609">
  <g id="Group_2420" data-name="Group 2420" transform="translate(-543 -284.391)">
    <g id="Group_2418" data-name="Group 2418" transform="translate(-1741.024 -590.595)">
      <path id="Path_12766" data-name="Path 12766" d="M3063.4,1141.22v7.357h8.536Z" transform="translate(-622.188 -212.539)" fill="#1267ef"/>
      <path id="Path_12768" data-name="Path 12768" d="M2526.959,1191.7h-7.154l7.154,4.208Z" transform="translate(-188.229 -252.836)" fill="#dcd61f"/>
      <path id="Path_12769" data-name="Path 12769" d="M2555.427,1087.063c.028.025.055.05.081.077l.024.027.021.023.018.02a1.483,1.483,0,0,1,.111.153l.02.033c.023.038.043.077.063.118l.013.027a1.37,1.37,0,0,1,.071.2l0,.013a.037.037,0,0,0,0,.007l.006.026a1.429,1.429,0,0,1,.034.2c0,.006,0,.012,0,.018,0,.04.006.079.006.12v67.6c0,.007,0,.013,0,.02a1.412,1.412,0,0,1-1.412,1.412H2427.336a1.412,1.412,0,0,1-1.412-1.412v-67.616c0-.042,0-.084.006-.125,0,0,0-.008,0-.012v0a1.417,1.417,0,0,1,.032-.186l.008-.031s0-.009,0-.013,0-.007,0-.012a1.358,1.358,0,0,1,.072-.2l.013-.028c.018-.037.036-.072.057-.107l.02-.033c.009-.014.017-.03.027-.044l0,0c.025-.037.052-.073.081-.107l.01-.011c.011-.013.023-.026.035-.038l.024-.027c.022-.023.046-.045.07-.067l.015-.016,13.269-11.625v-11.965h-28.7v103.222h159.877V1063.466h-28.7v12.156l13.258,11.426Z" transform="translate(-101.348 -150.467)" fill="#fff"/>
      <path id="Path_12770" data-name="Path 12770" d="M3063.4,1191.7v4.095l7.078-4.095Z" transform="translate(-622.188 -252.836)" fill="#dcd61f"/>
      <path id="Path_12771" data-name="Path 12771" d="M2521.294,1140.4l-8.585,7.521h8.585Z" transform="translate(-182.564 -211.889)" fill="#1267ef"/>
      <path id="Path_12772" data-name="Path 12772" d="M2501.1,1260.59h124.33v-63.756l-61.979,35.859a1.412,1.412,0,0,1-1.423-.005l-60.928-35.834Z" transform="translate(-173.293 -256.937)" fill="#1267ef"/>
      <path id="Path_12773" data-name="Path 12773" d="M2498.526,1019.045H2485V914.653a13.973,13.973,0,0,0-13.958-13.956h-27.41V876.4a1.412,1.412,0,0,0-1.412-1.412h-99.655a1.412,1.412,0,0,0-1.412,1.412v24.3h-28.727a13.972,13.972,0,0,0-13.956,13.956v104.392h-13.031a1.412,1.412,0,0,0-1.412,1.412,14.154,14.154,0,0,0,14.138,14.138H2485.8a14.154,14.154,0,0,0,14.138-14.138A1.412,1.412,0,0,0,2498.526,1019.045Zm-54.9-115.525h27.41a11.147,11.147,0,0,1,11.135,11.133v104.392h-7.023V914.411A1.412,1.412,0,0,0,2473.74,913h-30.111Zm0,12.3h28.7v103.222H2312.452V915.822h28.7v11.965l-13.269,11.625-.015.016c-.024.022-.047.044-.07.067l-.024.027-.035.038-.01.011c-.029.034-.056.07-.081.107l0,0c-.01.014-.018.029-.027.044l-.02.033c-.02.035-.039.07-.057.107l-.013.028a1.416,1.416,0,0,0-.072.2s0,.008,0,.012,0,.009,0,.013l-.008.031a1.371,1.371,0,0,0-.032.186v0s0,.008,0,.012c0,.042-.006.083-.006.125v67.616a1.412,1.412,0,0,0,1.412,1.412h127.155a1.412,1.412,0,0,0,1.412-1.412c0-.007,0-.013,0-.02v-67.6c0-.04,0-.08-.006-.12,0-.006,0-.012,0-.018a1.359,1.359,0,0,0-.034-.2l-.006-.026a.036.036,0,0,0,0-.007s0-.009,0-.013a1.4,1.4,0,0,0-.071-.2l-.013-.027c-.019-.04-.04-.079-.063-.118l-.02-.033a1.391,1.391,0,0,0-.111-.153l-.018-.02-.021-.023-.024-.027c-.026-.027-.053-.052-.081-.077l-.015-.015-13.258-11.426Zm-111.063,23.24,8.584-7.521v7.521Zm8.584,2.823v4.207L2334,941.886Zm102.479-10.18,8.536,7.357h-8.536Zm0,10.18h7.077l-7.077,4.095Zm-99.655-64.076h96.832v69.8l-48.932,28.31-47.9-28.171Zm47.178,100.966a1.412,1.412,0,0,0,1.423.005l61.979-35.859v63.756h-124.33V942.942Zm-89.862-64.123a11.145,11.145,0,0,1,11.133-11.133h28.727V913H2311.04a1.412,1.412,0,0,0-1.412,1.412v104.634h-8.338ZM2485.8,1031.771H2298.162a11.331,11.331,0,0,1-11.227-9.9h210.092A11.331,11.331,0,0,1,2485.8,1031.771Z" transform="translate(0 0)" fill="#1a1a1a"/>
      <path id="Path_12774" data-name="Path 12774" d="M2879.148,957.534h19.287a1.412,1.412,0,0,0,0-2.823h-19.287a1.412,1.412,0,1,0,0,2.823Z" transform="translate(-473.972 -63.645)" fill="#1a1a1a"/>
      <path id="Path_12775" data-name="Path 12775" d="M2879.148,996.208h19.287a1.412,1.412,0,0,0,0-2.823h-19.287a1.412,1.412,0,1,0,0,2.823Z" transform="translate(-473.972 -94.519)" fill="#1a1a1a"/>
      <path id="Path_12776" data-name="Path 12776" d="M2646.388,1066.195h66.23a1.412,1.412,0,1,0,0-2.824h-66.23a1.412,1.412,0,0,0,0,2.824Z" transform="translate(-288.155 -150.391)" fill="#1a1a1a"/>
      <path id="Path_12777" data-name="Path 12777" d="M2646.388,1103.324h66.23a1.412,1.412,0,1,0,0-2.824h-66.23a1.412,1.412,0,0,0,0,2.824Z" transform="translate(-288.155 -180.032)" fill="#1a1a1a"/>
      <path id="Path_12778" data-name="Path 12778" d="M2646.388,1140.138h49.624a1.412,1.412,0,1,0,0-2.823h-49.624a1.412,1.412,0,0,0,0,2.823Z" transform="translate(-288.155 -209.422)" fill="#1a1a1a"/>
      <path id="Path_12779" data-name="Path 12779" d="M2646.388,1177.267h66.23a1.412,1.412,0,1,0,0-2.823h-66.23a1.412,1.412,0,0,0,0,2.823Z" transform="translate(-288.155 -239.063)" fill="#1a1a1a"/>
      <path id="Path_12780" data-name="Path 12780" d="M2646.388,1213.526h29.241a1.412,1.412,0,0,0,0-2.824h-29.241a1.412,1.412,0,0,0,0,2.824Z" transform="translate(-288.155 -268.008)" fill="#1a1a1a"/>
      <path id="Path_12781" data-name="Path 12781" d="M2773.9,1288.048a1.412,1.412,0,0,0-1.412-1.412h-29.24a1.412,1.412,0,1,0,0,2.823h29.24A1.412,1.412,0,0,0,2773.9,1288.048Z" transform="translate(-365.482 -328.628)" fill="#1a1a1a"/>
      <path id="Path_12782" data-name="Path 12782" d="M2714.03,1249.244a1.412,1.412,0,0,0-1.412-1.412h-66.23a1.412,1.412,0,0,0,0,2.824h66.23A1.412,1.412,0,0,0,2714.03,1249.244Z" transform="translate(-288.155 -297.65)" fill="#1a1a1a"/>
    </g>
    <g id="Group_2410" data-name="Group 2410" transform="translate(141.845 -183.205)">
      <path id="Path_12761" data-name="Path 12761" d="M484.279,503.628a25.017,25.017,0,1,1,49.238,8.31,25.557,25.557,0,0,1-6.8,12.336c1.016,1.333,1.936,2.535,2.852,3.741.563.742,1.145,1.474.6,2.494-.532,1-1.465.974-2.394.974-5.24,0-10.479.024-15.718-.011a43.239,43.239,0,0,1-6.454-.271A24.985,24.985,0,0,1,484.279,503.628Z" transform="translate(0 0)" fill="#1267ef" stroke="#fff" stroke-width="5"/>
      <path id="Path_12762" data-name="Path 12762" d="M912.708,915.1v1.779H902.214V915.1c.408,0,.8,0,1.188,0,.654,0,.73-.078.731-.751q0-3.431,0-6.863c0-1.359,0-2.718,0-4.076,0-.655-.1-.746-.746-.751-.376,0-.751,0-1.16,0v-1.716h8.446v.586q0,6.347,0,12.693c0,.822.058.878.873.879Z" transform="translate(-397.798 -399.4)" fill="#fff"/>
      <path id="Path_12763" data-name="Path 12763" d="M937.652,732.737a3.685,3.685,0,0,1-3.633-3.666,3.645,3.645,0,0,1,7.291.024A3.678,3.678,0,0,1,937.652,732.737Z" transform="translate(-428.062 -232.405)" fill="#fff"/>
    </g>
  </g>
</svg>
