<svg xmlns="http://www.w3.org/2000/svg" width="20.074" height="17.333" viewBox="0 0 20.074 17.333">
  <g id="hidden" transform="translate(3 -32.053)">
    <g id="Group_994" data-name="Group 994" transform="translate(-3 32.053)">
      <g id="Group_993" data-name="Group 993" transform="translate(0 0)">
        <path id="Path_967" data-name="Path 967" d="M231.147,160.067l2.874,2.874.014-.151a2.739,2.739,0,0,0-2.737-2.737Z" transform="translate(-221.263 -154.579)" fill="#d8d8db"/>
        <path id="Path_968" data-name="Path 968" d="M153.29,66.335a4.563,4.563,0,0,1,4.561,4.561,4.491,4.491,0,0,1-.324,1.665l2.668,2.668A10.834,10.834,0,0,0,163.33,70.9a10.8,10.8,0,0,0-10.039-6.842,10.669,10.669,0,0,0-3.635.639l1.97,1.966A4.584,4.584,0,0,1,153.29,66.335Z" transform="translate(-143.255 -62.686)" fill="#d8d8db"/>
        <path id="Path_969" data-name="Path 969" d="M.912,33.216l2.08,2.08.415.415A10.805,10.805,0,0,0,0,40.263a10.777,10.777,0,0,0,14.035,6.071l.388.388,2.659,2.664,1.163-1.159L2.075,32.053Zm5.045,5.04,1.409,1.409a2.891,2.891,0,0,0-.068.6A2.739,2.739,0,0,0,10.035,43a2.812,2.812,0,0,0,.593-.068l1.409,1.409a4.487,4.487,0,0,1-2,.484,4.531,4.531,0,0,1-4.078-6.568Z" transform="translate(0 -32.053)" fill="#d8d8db"/>
      </g>
    </g>
  </g>
</svg>
