<svg id="Group_2305" data-name="Group 2305" xmlns="http://www.w3.org/2000/svg" width="39.579" height="39.631" viewBox="0 0 39.579 39.631">
  <g id="Group_2284" data-name="Group 2284" transform="translate(0 0)">
    <g id="Group_2283" data-name="Group 2283">
      <path id="Path_7032" data-name="Path 7032" d="M171.874,469.526a19.789,19.789,0,1,1-19.789-19.789A19.65,19.65,0,0,1,171.874,469.526Z" transform="translate(-132.295 -449.737)" fill="#fff2e9"/>
    </g>
  </g>
  <g id="Group_2304" data-name="Group 2304" transform="translate(2.305 6.299)">
    <g id="Group_2289" data-name="Group 2289" transform="translate(6.596 7.049)">
      <g id="Group_2286" data-name="Group 2286" transform="translate(0.251 1.453)">
        <g id="Group_2285" data-name="Group 2285">
          <path id="Path_7033" data-name="Path 7033" d="M234.884,614.084l-.78-.55c-.254-.169-.5-.331-.761-.479s-.52-.287-.793-.424l-.863-.407a2.188,2.188,0,0,1,1-.026,2.982,2.982,0,0,1,1.72,1A2.2,2.2,0,0,1,234.884,614.084Z" transform="translate(-231.687 -612.152)" fill="#111"/>
        </g>
      </g>
      <g id="Group_2288" data-name="Group 2288">
        <g id="Group_2287" data-name="Group 2287">
          <path id="Path_7034" data-name="Path 7034" d="M232.419,599.912A19.291,19.291,0,0,0,231,597.827a4.4,4.4,0,0,0-.872-.807,3.145,3.145,0,0,0-1.145-.461,1.875,1.875,0,0,1,1.355.058,2.891,2.891,0,0,1,1.107.834,4.179,4.179,0,0,1,.688,1.163A3.843,3.843,0,0,1,232.419,599.912Z" transform="translate(-228.979 -596.459)" fill="#111"/>
        </g>
      </g>
    </g>
    <g id="Group_2291" data-name="Group 2291" transform="translate(11.474 4.582)">
      <g id="Group_2290" data-name="Group 2290">
        <path id="Path_7035" data-name="Path 7035" d="M296.926,574.554s2.13,8.138-3.568,8.712l.38,4.009-10.118-.1-1.034-12.237,3.953-5.124,9.485.1Z" transform="translate(-282.587 -569.81)" fill="#ffcec8"/>
      </g>
    </g>
    <g id="Group_2293" data-name="Group 2293" transform="translate(9.316 0)">
      <g id="Group_2292" data-name="Group 2292">
        <path id="Path_7036" data-name="Path 7036" d="M263.712,531.23s.551-5.135,3.5-5.21c2.078-.053,2.822.917,3.992,2.423a4.855,4.855,0,0,0,3,1.791c2.251.376,4.015-.677,4.2-3,.341-4.229-4.339-7.7-8.258-5.867-.787.367-1.51.859-2.295,1.229a2.642,2.642,0,0,1-1.923.284,3.551,3.551,0,0,1-1.486-1.353,2.827,2.827,0,0,0-3.6-.886,2.951,2.951,0,0,0-1.281,1.74c-.46,1.543-.127,3.434-.062,5.029.009.212.025,3.107.126,3.124Z" transform="translate(-259.329 -520.313)" fill="#111"/>
      </g>
    </g>
    <g id="Group_2295" data-name="Group 2295" transform="translate(9.091 9.39)">
      <g id="Group_2294" data-name="Group 2294">
        <path id="Path_7037" data-name="Path 7037" d="M261.015,624.2a2.424,2.424,0,1,1-2.4-2.449A2.424,2.424,0,0,1,261.015,624.2Z" transform="translate(-256.167 -621.748)" fill="#ffcec8"/>
      </g>
    </g>
    <g id="Group_2297" data-name="Group 2297" transform="translate(0 21.202)">
      <g id="Group_2296" data-name="Group 2296">
        <path id="Path_7038" data-name="Path 7038" d="M157.712,750.963a17.871,17.871,0,0,1,2.845-.625l5.879-.781,1.567-.21h17.3a16.26,16.26,0,0,1,7.444,1.757,19.668,19.668,0,0,1-17.206,10.373A19.972,19.972,0,0,1,157.712,750.963Z" transform="translate(-157.815 -749.347)" fill="#4a008b"/>
      </g>
    </g>
    <g id="Group_2299" data-name="Group 2299" transform="translate(17.123 16.049)">
      <g id="Group_2298" data-name="Group 2298">
        <path id="Path_7039" data-name="Path 7039" d="M348.75,695.675a7.18,7.18,0,0,1-5.12-1.989s.889,2.835,5.24,3.253Z" transform="translate(-343.63 -693.686)" fill="#ffb1a8"/>
      </g>
    </g>
    <g id="Group_2301" data-name="Group 2301" transform="translate(11.139 20.807)">
      <g id="Group_2300" data-name="Group 2300">
        <path id="Path_7040" data-name="Path 7040" d="M291.757,747.489a6.5,6.5,0,0,1-12.942.07l1.524-.191Z" transform="translate(-278.815 -747.368)" fill="#ffcec8"/>
      </g>
    </g>
    <g id="Group_2303" data-name="Group 2303" transform="translate(10.81 20.807)">
      <g id="Group_2302" data-name="Group 2302">
        <path id="Path_7041" data-name="Path 7041" d="M282.038,751.441a6.863,6.863,0,0,1-6.78-5.923.329.329,0,1,1,.653-.09,6.2,6.2,0,0,0,12.289-.064.329.329,0,1,1,.653.083,6.877,6.877,0,0,1-6.272,5.973Q282.308,751.441,282.038,751.441Z" transform="translate(-275.255 -745.076)" fill="#fff"/>
      </g>
    </g>
  </g>
</svg>
