<svg xmlns="http://www.w3.org/2000/svg" width="20.122" height="13.72" viewBox="0 0 20.122 13.72">
  <g id="visibility" transform="translate(0 -74.667)">
    <g id="Group_2270" data-name="Group 2270" transform="translate(0 74.667)">
      <g id="Group_2269" data-name="Group 2269" transform="translate(0 0)">
        <path id="Path_7033" data-name="Path 7033" d="M173.411,170.667a2.744,2.744,0,1,0,2.744,2.744A2.746,2.746,0,0,0,173.411,170.667Z" transform="translate(-163.35 -166.551)" fill="#d8d8db"/>
        <path id="Path_7034" data-name="Path 7034" d="M10.061,74.667A10.817,10.817,0,0,0,0,81.527a10.808,10.808,0,0,0,20.122,0A10.813,10.813,0,0,0,10.061,74.667Zm0,11.433a4.573,4.573,0,1,1,4.573-4.573A4.575,4.575,0,0,1,10.061,86.1Z" transform="translate(0 -74.667)" fill="#d8d8db"/>
      </g>
    </g>
  </g>
</svg>
